<svg xmlns="http://www.w3.org/2000/svg" xmlns:xlink="http://www.w3.org/1999/xlink" viewBox="0 0 500 500" shape-rendering="geometricPrecision" text-rendering="geometricPrecision"><ellipse rx="240.406676" ry="240.406676" transform="matrix(1.039905 0 0 1.039905 249.999896 250)" fill="#1a45b6" stroke-width="0"/><ellipse rx="196.522027" ry="196.522027" transform="matrix(1.029934 0 0 1.029934 249.999896 250)" fill="#2365ff" stroke-width="0"/><path d="M303.57854,234.42147c-20.98682,0-38-17.01318-38-38v-45.97798c0-20.98682,17.01318-38,38-38h45.97798c20.98682,0,38,17.01318,38,38v45.97798c0,20.98682-17.01318,38-38,38h-45.97798Zm45.97798,26.53701c20.98682,0,38,17.01323,38,38.00011v45.97812c0,20.98688-17.01318,38.00011-38,38.00011h-191.24305c-21.76375,0-39.40676-17.01323-39.40676-38.00011v-194.49348c0-20.98688,17.64301-38.00011,39.40676-38.00011h47.68008c21.76375,0,39.40676,17.01323,39.40676,38.00011v110.51524l104.15621.00001Z" transform="matrix(0 0.819278-.819278 0 452.926839 42.532909)" fill="#ebf1ff" stroke-width="0"/></svg>