<?xml version="1.0" encoding="UTF-8"?>
<!DOCTYPE svg PUBLIC "-//W3C//DTD SVG 1.1//EN" "http://www.w3.org/Graphics/SVG/1.1/DTD/svg11.dtd">
<svg xmlns="http://www.w3.org/2000/svg" version="1.1" width="250px" height="250px" style="shape-rendering:geometricPrecision; text-rendering:geometricPrecision; image-rendering:optimizeQuality; fill-rule:evenodd; clip-rule:evenodd" xmlns:xlink="http://www.w3.org/1999/xlink">
<g><path style="opacity:1" fill="#2351c6" d="M 45.5,2.5 C 52.4831,2.05247 59.1498,3.21914 65.5,6C 74.4701,13.9692 83.1368,22.3025 91.5,31C 92.5,31.3333 93.5,31.6667 94.5,32C 112.833,32.6667 131.167,32.6667 149.5,32C 159.703,24.8056 169.037,16.4722 177.5,7C 180.648,4.30484 184.315,2.97151 188.5,3C 210.781,-0.771922 227.281,7.06141 238,26.5C 239.811,30.9877 240.811,35.6543 241,40.5C 241.667,86.5 241.667,132.5 241,178.5C 239.276,196.799 229.776,208.966 212.5,215C 202.461,215.867 192.461,216.867 182.5,218C 174.197,225.302 166.197,232.969 158.5,241C 155.676,243.613 152.342,245.279 148.5,246C 130.833,246.667 113.167,246.667 95.5,246C 93.0506,245.275 90.7173,244.275 88.5,243C 79.8633,235.364 71.53,227.364 63.5,219C 62.1667,218.333 60.8333,217.667 59.5,217C 42.7968,219.1 28.6301,214.267 17,202.5C 11.4398,195.489 8.43981,187.489 8,178.5C 7.03884,129.808 7.37217,81.1415 9,32.5C 15.0483,14.9434 27.215,4.94336 45.5,2.5 Z"/></g>
<g><path style="opacity:1" fill="#2465fe" d="M 39.5,6.5 C 46.175,6.33375 52.8417,6.50042 59.5,7C 68.076,13.5704 76.076,20.9038 83.5,29C 86.6587,32.0823 90.3253,34.4157 94.5,36C 113.538,36.9208 132.538,36.5875 151.5,35C 153.5,34 155.5,33 157.5,32C 165.899,22.9314 174.899,14.598 184.5,7C 192.833,6.33333 201.167,6.33333 209.5,7C 221.061,10.5627 229.561,17.7293 235,28.5C 236.036,31.7527 236.703,35.086 237,38.5C 237.667,85.8333 237.667,133.167 237,180.5C 234.7,196.902 225.533,207.402 209.5,212C 200.425,212.085 191.425,212.752 182.5,214C 174.234,220.262 166.568,227.262 159.5,235C 156.443,237.723 153.11,240.056 149.5,242C 140.333,242.167 131.167,242.333 122,242.5C 111.764,242.63 101.597,242.13 91.5,241C 83.1368,232.303 74.4701,223.969 65.5,216C 56.7787,213.072 47.7787,211.738 38.5,212C 23.2071,206.904 14.3738,196.404 12,180.5C 11.3333,133.167 11.3333,85.8333 12,38.5C 12.2573,32.728 13.924,27.3946 17,22.5C 20.1667,18.6667 23.6667,15.1667 27.5,12C 31.4896,9.85837 35.4896,8.02503 39.5,6.5 Z"/></g>
<g><path style="opacity:1" fill="#fbfcfe" d="M 38.5,64.5 C 54.2524,63.9815 69.9191,64.8149 85.5,67C 95.4039,70.2368 102.904,76.4034 108,85.5C 109.916,90.4081 111.583,95.4081 113,100.5C 113.667,109.833 113.667,119.167 113,128.5C 111.692,132.76 110.192,136.926 108.5,141C 94.0767,139.59 87.41,146.09 88.5,160.5C 85.763,161.031 83.0964,161.864 80.5,163C 66.504,163.5 52.504,163.667 38.5,163.5C 38.5,130.5 38.5,97.5 38.5,64.5 Z"/></g>
<g><path style="opacity:1" fill="#2666fe" d="M 57.5,79.5 C 81.8102,77.8099 94.4769,89.1432 95.5,113.5C 94.8651,138.475 82.1985,150.141 57.5,148.5C 57.5,125.5 57.5,102.5 57.5,79.5 Z"/></g>
<g><path style="opacity:1" fill="#fdfdfe" d="M 119.5,83.5 C 125.167,83.5 130.833,83.5 136.5,83.5C 136.667,107.836 136.5,132.169 136,156.5C 134.978,171.078 127.478,180.245 113.5,184C 104.674,185.08 96.0074,184.413 87.5,182C 80.6418,178.106 76.9751,172.273 76.5,164.5C 81.014,164.927 85.1807,163.927 89,161.5C 91.4485,162.944 93.6152,164.778 95.5,167C 106.809,171.159 114.309,167.659 118,156.5C 118.919,132.174 119.419,107.841 119.5,83.5 Z"/></g>
<g><path style="opacity:1" fill="#fbfafe" d="M 165.5,82.5 C 178.957,80.698 191.624,82.8647 203.5,89C 205.557,90.7194 207.224,92.7194 208.5,95C 205.902,99.3996 202.735,103.233 199,106.5C 196.551,105.056 194.385,103.222 192.5,101C 187.379,99.6262 182.212,98.4595 177,97.5C 162.823,99.5107 159.99,106.177 168.5,117.5C 180.348,122.422 192.015,127.922 203.5,134C 206.933,137.104 209.1,140.937 210,145.5C 213.339,171.107 202.006,184.107 176,184.5C 164.425,184.77 153.925,181.603 144.5,175C 143.101,173.938 142.101,172.605 141.5,171C 142.924,167.908 144.757,165.074 147,162.5C 148.389,160.773 150.056,159.439 152,158.5C 156.324,162.147 161.157,164.98 166.5,167C 174.53,169.512 182.196,168.846 189.5,165C 194.28,160.264 194.78,155.098 191,149.5C 189.59,148.213 188.09,147.046 186.5,146C 175.445,142.097 164.778,137.431 154.5,132C 140.206,117.935 139.872,103.601 153.5,89C 157.147,86.0127 161.147,83.8461 165.5,82.5 Z"/></g>
<g><path style="opacity:1" fill="#fafbff" d="M 99.5,144.5 C 109.317,144.149 113.817,148.815 113,158.5C 110.24,164.297 105.74,166.463 99.5,165C 90.2138,158.169 90.2138,151.336 99.5,144.5 Z"/></g>
</svg>
